<?xml version="1.0" encoding="UTF-8" standalone="no"?>
<!-- Created with Inkscape (http://www.inkscape.org/) -->

<svg
   width="512"
   height="512"
   viewBox="0 0 512 512"
   version="1.1"
   id="svg1"
   inkscape:version="1.3.2 (091e20e, 2023-11-25, custom)"
   sodipodi:docname="base.svg"
   inkscape:export-filename="base.png"
   inkscape:export-xdpi="96"
   inkscape:export-ydpi="96"
   xmlns:inkscape="http://www.inkscape.org/namespaces/inkscape"
   xmlns:sodipodi="http://sodipodi.sourceforge.net/DTD/sodipodi-0.dtd"
   xmlns:xlink="http://www.w3.org/1999/xlink"
   xmlns="http://www.w3.org/2000/svg"
   xmlns:svg="http://www.w3.org/2000/svg">
  <sodipodi:namedview
     id="namedview1"
     pagecolor="#ffffff"
     bordercolor="#000000"
     borderopacity="0.25"
     inkscape:showpageshadow="2"
     inkscape:pageopacity="0.0"
     inkscape:pagecheckerboard="0"
     inkscape:deskcolor="#d1d1d1"
     inkscape:document-units="px"
     showguides="false"
     inkscape:zoom="1.6365655"
     inkscape:cx="139.01063"
     inkscape:cy="263.66192"
     inkscape:window-width="2400"
     inkscape:window-height="1494"
     inkscape:window-x="-11"
     inkscape:window-y="-11"
     inkscape:window-maximized="1"
     inkscape:current-layer="layer1" />
  <defs
     id="defs1">
    <rect
       x="15.770464"
       y="34.349367"
       width="96.135021"
       height="85.981435"
       id="rect11" />
    <linearGradient
       id="linearGradient3"
       inkscape:collect="always">
      <stop
         style="stop-color:#6db775;stop-opacity:1;"
         offset="0.06514084"
         id="stop3" />
      <stop
         style="stop-color:#7ca975;stop-opacity:0.2418136;"
         offset="1"
         id="stop4" />
    </linearGradient>
    <linearGradient
       inkscape:collect="always"
       xlink:href="#linearGradient3"
       id="linearGradient4"
       x1="505.32654"
       y1="6.1103573"
       x2="1.8331072"
       y2="513.88104"
       gradientUnits="userSpaceOnUse"
       gradientTransform="matrix(1.0218555,0,0,1.0206109,-6.8682924,-5.6126675)" />
  </defs>
  <g
     inkscape:label="Layer 1"
     inkscape:groupmode="layer"
     id="layer1">
    <rect
       style="fill:#ffffff;fill-opacity:1;stroke-width:1.021;stroke-dasharray:none"
       id="rect14"
       width="512"
       height="512"
       x="0"
       y="0" />
    <rect
       style="fill:url(#linearGradient4);fill-opacity:1;stroke-width:1.02123"
       id="Background"
       width="512"
       height="512"
       x="0"
       y="0" />
    <path
       id="Gear"
       style="fill:#75a97c;fill-opacity:0.184987;stroke:#000000;stroke-width:17.6886;stroke-dasharray:none;stroke-opacity:1"
       d="m 246.06139,114.61985 a 140.85017,141.007 0 0 0 -20.95709,2.91904 l -1.57321,36.63195 a 109.60427,105.24769 0 0 0 -19.37126,7.79257 l -27.19621,-24.28848 a 140.85017,141.007 0 0 0 -16.6071,13.01077 l 16.17116,31.05319 a 109.60427,105.24769 0 0 0 -14.55688,17.53323 l -33.0531,-6.87224 a 140.85017,141.007 0 0 0 -7.98605,19.56993 l 27.77116,17.68821 a 109.60427,105.24769 0 0 0 -3.3612,23.97854 l -30.72173,10.15182 a 140.85017,141.007 0 0 0 2.91579,20.9836 l 32.73719,1.4105 a 109.60427,105.24769 0 0 0 9.9415,21.45798 l -22.56504,25.3258 a 140.85017,141.007 0 0 0 12.99946,16.62873 l 31.15766,-16.26504 a 109.60427,105.24769 0 0 0 17.85177,12.34348 l -7.34163,35.39538 a 140.85017,141.007 0 0 0 19.545,7.9918 l 19.97464,-31.43271 a 109.60427,105.24769 0 0 0 20.13891,2.42252 l 11.64739,35.32897 a 140.85017,141.007 0 0 0 20.96027,-2.91903 l 1.5732,-36.63195 a 109.60427,105.24769 0 0 0 19.37127,-7.79255 l 27.19619,24.28847 a 140.85017,141.007 0 0 0 16.60711,-13.01077 L 333.1594,328.26037 a 109.60427,105.24769 0 0 0 14.55687,-17.53324 l 33.05309,6.87225 a 140.85017,141.007 0 0 0 7.98608,-19.56993 l -27.77117,-17.68822 a 109.60427,105.24769 0 0 0 3.3612,-23.97854 l 31.03446,-10.25619 a 140.85017,141.007 0 0 0 -2.89683,-20.86658 l -32.97094,-1.41998 a 109.60427,105.24769 0 0 0 -9.89097,-21.62877 l 22.50503,-25.25938 a 140.85017,141.007 0 0 0 -12.91418,-16.61608 l -31.23979,16.30614 A 109.60427,105.24769 0 0 0 310.0731,164.11711 l 7.34479,-35.40172 a 140.85017,141.007 0 0 0 -19.49763,-7.92538 l -19.9304,31.36313 a 109.60427,105.24769 0 0 0 -20.32215,-2.33397 z m 8.78215,83.48846 a 56.827702,56.890972 0 0 1 56.82805,56.89132 56.827702,56.890972 0 0 1 -56.82805,56.89133 56.827702,56.890972 0 0 1 -56.82805,-56.89133 56.827702,56.890972 0 0 1 56.82805,-56.89132 z" />
  </g>
</svg>
